<svg width="943" height="758" viewBox="0 0 943 758" fill="none" xmlns="http://www.w3.org/2000/svg">
<path d="M942.98 456.45C942.11 534.571 931.806 603.47 901.397 655.043C897.76 661.212 893.831 667.137 889.597 672.797C888.155 674.734 886.668 676.639 885.147 678.512C833.586 742.104 739.972 769.772 575.752 739.796C376.871 703.496 116.918 843.94 29.8654 663.884C29.4345 662.999 29.0116 662.11 28.5926 661.208C28.0748 660.094 27.5609 658.967 27.055 657.829C4.0417 606.075 -5.55572 529.401 3.20766 417.292C21.4499 183.862 241.009 143.468 501.289 146.361C761.566 149.258 945.198 257.323 942.98 456.45Z" fill="#E9F5ED"/>
<path d="M901.394 655.043C897.757 661.212 893.828 667.137 889.595 672.797C888.152 674.734 886.666 676.639 885.144 678.513C833.583 742.104 739.969 769.772 575.75 739.796C376.868 703.496 116.915 843.94 29.8626 663.884C29.4318 662.999 29.0088 662.11 28.5898 661.209C30.4239 660.983 32.258 660.762 34.0961 660.541C65.0743 656.809 96.2777 653.608 127.513 650.873C133.165 650.379 138.818 649.9 144.47 649.438C158.507 648.284 172.539 647.225 186.552 646.252C193.031 645.802 199.501 645.371 205.968 644.96C390.217 633.213 569.785 636.249 704.137 642.304C707.967 642.478 711.762 642.656 715.517 642.829C718.015 642.948 720.494 643.067 722.956 643.185C725.521 643.312 728.067 643.438 730.593 643.565C731.427 643.604 732.257 643.648 733.087 643.691C733.589 643.715 734.095 643.738 734.597 643.766C770.943 645.612 803.333 647.632 830.82 649.549C833.825 649.758 836.769 649.968 839.659 650.173C865.214 652.003 886.077 653.711 901.394 655.043Z" fill="#C5DACC"/>
<path d="M179.144 697.476C237.718 697.476 285.202 690.754 285.202 682.461C285.202 674.168 237.718 667.445 179.144 667.445C120.57 667.445 73.0859 674.168 73.0859 682.461C73.0859 690.754 120.57 697.476 179.144 697.476Z" fill="#E9F5ED"/>
<path d="M744.339 699.757C802.913 699.757 850.397 693.034 850.397 684.742C850.397 676.449 802.913 669.726 744.339 669.726C685.765 669.726 638.281 676.449 638.281 684.742C638.281 693.034 685.765 699.757 744.339 699.757Z" fill="#E9F5ED"/>
<path d="M199.052 324.424L204.926 334.341L209.321 339.559L207.29 341.266C207.29 341.266 207.487 351.503 198.589 348.59L196.119 354.301L198.415 364.21L183.237 355.076L176.074 352.562L185.083 346.088C185.087 346.088 193.099 327.946 199.052 324.424Z" fill="#F2B694"/>
<path d="M201.493 327.322C201.493 327.322 195.915 327.1 194.631 328.926C193.35 330.748 197.607 339.772 197.607 339.772L196.156 340.993L191.876 335.91C191.876 335.91 187.99 337.179 189.366 339.993L191.322 342.317L185.081 346.084L179.223 329.709L182.788 324.231C182.792 324.239 205.378 314.871 201.493 327.322Z" fill="#002868"/>
<path d="M198.587 348.594L194.31 346.345L191.986 332.875C191.986 332.875 187.607 334.642 189.82 343.23L192.662 349.052L194.726 356.633L198.587 348.594Z" fill="#E9F5ED"/>
<path d="M202.982 678.307L209.658 679.955L213.204 679.765C213.204 679.765 216.567 682.275 212.765 683.232C208.958 684.188 203.99 684.01 203.99 684.01C203.99 684.01 201.831 682.327 202.207 683.172C202.578 684.022 199.444 684.742 199.444 684.742L198.902 678.908L202.982 678.307Z" fill="#163B70"/>
<path d="M133.3 676.374L139.202 678.631L142.459 678.856C142.459 678.856 145.246 681.524 141.669 681.967C138.091 682.41 133.577 681.686 133.577 681.686C133.577 681.686 131.798 679.908 132.043 680.722C132.289 681.536 129.348 681.844 129.348 681.844L129.514 676.465L133.3 676.374Z" fill="#163B70"/>
<path d="M197.043 352.1L205.008 359.459C206.261 360.617 206.941 362.266 206.866 363.973L202.957 417.49L208.546 453.572C210.028 463.141 203.083 471.959 193.434 472.762L155.586 475.916C157.333 447.462 161.061 399.546 150.796 369.463C149.475 365.598 151.128 361.345 154.721 359.404L178.884 349.424L193.035 361.839L197.043 352.1Z" fill="#FF0000"/>
<path d="M157.633 440.3L141.782 477.931C140.75 480.378 142.565 483.078 145.217 483.05L202.608 482.512L203.138 448.015L157.633 440.3Z" fill="#FF0000"/>
<path d="M156.624 482.947L146.675 571.594C146.675 571.594 123.156 592.656 128.207 678.03L134.733 677.971L185.242 530.144C185.242 530.144 174.759 501.196 156.624 482.947Z" fill="#163B70"/>
<path d="M153.023 482.979L176.934 574.356C176.728 573.242 163.4 593.838 199.418 680.149L206.687 679.386L202.6 482.512L153.023 482.979Z" fill="#1A4583"/>
<path d="M155.328 482.959L184.792 482.682L203.003 456.659L184.84 487.71C160.301 486.975 154.336 487.994 154.336 487.994L153.023 482.975L155.328 482.959Z" fill="#E9F5ED"/>
<path d="M200.816 422.055L203.433 373.088C203.65 369.016 202.555 364.981 200.306 361.578L195.851 354.843L191.365 360.167L184.582 353.384L200.816 422.055Z" fill="white"/>
<path d="M200.816 422.055L178.111 394.364L186.795 391.506L173.668 360.981L184.582 353.384L200.816 422.055Z" fill="#ED4444"/>
<path d="M136.543 452.738L136.61 459.876L142.528 462.149L144.812 459.801L142.464 455.181L144.769 455.161C144.769 455.161 148.986 454.718 140.974 449.805L136.543 452.738Z" fill="#F2B694"/>
<path d="M179.149 375.918L170.105 387.641L160.65 394.834L158.314 419.652L156.512 393.091L156.535 390.89L179.149 375.918Z" fill="#E9F5ED"/>
<path d="M154.723 359.404L114.227 393.447C111.448 395.783 110.566 399.688 112.072 402.992L135.418 454.209L140.892 450.584L130.54 405.522L167.546 385.621C167.546 385.621 192.401 373.42 176.333 357.27C171.799 352.716 160.071 354.74 154.723 359.404Z" fill="#FF4949"/>
<path d="M200.816 422.055L197.836 456.604L203.006 456.659L200.816 422.055Z" fill="white"/>
<path d="M197.832 456.604C197.832 456.604 189.362 485.216 153.023 482.979L172.119 499.963L202.789 491.441L203.003 456.663L197.832 456.604Z" fill="#1A4583"/>
<path d="M205.008 359.455L230.045 394.36L267.359 427.502L264.256 432.047L223.313 407.779L205.589 392.763L205.008 359.455Z" fill="#FF0000"/>
<path d="M200.816 422.055L178.112 394.364L186.796 391.506L175.609 394.455L200.816 422.055Z" fill="#E9F5ED"/>
<path d="M272.931 433.687C272.801 433.703 271.279 433.881 268.638 434.209C258.911 435.422 233.972 438.711 207.006 443.624C205.421 443.912 203.832 444.205 202.235 444.505C201.101 444.719 199.962 444.936 198.824 445.153C196.879 445.529 194.926 445.912 192.978 446.3C180.459 448.809 167.996 451.643 156.857 454.762C154.786 455.339 152.762 455.928 150.797 456.525C148.524 457.216 146.327 457.916 144.212 458.631C142.259 459.291 140.382 459.959 138.587 460.639C131.255 463.41 125.278 466.351 121.325 469.438C103.447 483.394 96.1102 514.026 88.339 546.46C80.8998 577.518 72.4645 612.723 53.2697 639.703C47.5974 647.675 41.2215 654.616 34.1025 660.541C32.719 661.695 31.3079 662.809 29.869 663.884C29.4382 662.999 29.0152 662.11 28.5962 661.209C28.0784 660.094 27.5646 658.967 27.0586 657.829C61.2385 631.557 72.0534 586.423 81.9908 544.938C86.0661 527.934 89.9122 511.871 95.1694 498.006C101.205 482.082 108.241 471.37 117.309 464.291C121.76 460.821 128.432 457.544 136.555 454.489C138.919 453.6 141.405 452.73 143.995 451.877C147.2 450.825 150.564 449.798 154.05 448.805C155.086 448.509 156.134 448.217 157.189 447.924C163.055 446.311 169.225 444.782 175.53 443.339C183.38 441.541 191.444 439.881 199.409 438.359C200.215 438.205 201.018 438.055 201.82 437.901C203.219 437.64 204.611 437.383 205.998 437.13C226.901 433.312 246.491 430.505 258.887 428.865C262.187 428.43 264.978 428.075 267.148 427.806C267.623 427.747 268.069 427.691 268.484 427.64C270.473 427.399 271.749 427.253 272.188 427.201L272.931 433.687Z" fill="#57B33E"/>
<path d="M304.53 446.24L283.478 446.007C274.952 445.912 268.113 438.924 268.208 430.395C268.303 421.869 275.291 415.031 283.822 415.126L304.878 415.359L304.53 446.24Z" fill="#FFB30F"/>
<path d="M408.848 482.844L333.401 482.006C305.3 481.694 282.773 458.663 283.085 430.561C283.398 402.463 306.431 379.937 334.535 380.25L409.982 381.087L408.848 482.844Z" fill="#57B33E"/>
<path d="M351.545 491.682C346.311 491.623 342.117 487.334 342.176 482.101L343.311 380.344C343.37 375.111 347.659 370.918 352.892 370.977C358.126 371.036 362.32 375.325 362.261 380.558L361.126 482.315C361.067 487.544 356.774 491.737 351.545 491.682Z" fill="#FFB30F"/>
<path d="M434.056 424.782L407.387 424.486L407.529 411.854L434.199 412.15C437.689 412.19 440.484 415.047 440.444 418.537C440.405 422.023 437.547 424.822 434.056 424.782Z" fill="#57B33E"/>
<path d="M433.736 453.995L407.066 453.699L407.209 441.066L433.878 441.363C437.369 441.402 440.163 444.26 440.124 447.75C440.084 451.236 437.222 454.031 433.736 453.995Z" fill="#57B33E"/>
<path d="M404.181 492.267C398.948 492.208 394.754 487.919 394.813 482.686L395.948 380.929C396.007 375.696 400.296 371.503 405.529 371.562C410.763 371.621 414.957 375.91 414.897 381.143L413.763 482.9C413.704 488.129 409.415 492.326 404.181 492.267Z" fill="#FFB30F"/>
<path d="M699.202 384.696L666.018 427.529L638.273 453.485L642.123 457.256L698.807 420.367L699.202 384.696Z" fill="#EB0000"/>
<path d="M656.691 467.011L656.521 468.248L653.414 466.975L653.991 465.185L656.691 467.011Z" fill="#F2B694"/>
<path d="M702.15 352.06L705.186 350.606L708.565 352.412C708.565 352.412 705.953 349.756 705.387 349.471C705.047 349.301 703.549 350.258 702.403 351.052C701.636 351.586 701.023 352.045 701.023 352.045C701.023 352.045 702.174 352.871 702.15 352.06Z" fill="#1A4583"/>
<path d="M704.059 354.131C704.051 354.938 703.746 355.59 703.383 355.586C703.019 355.582 702.731 354.926 702.738 354.116C702.746 353.309 703.051 352.657 703.414 352.661C703.778 352.665 704.067 353.325 704.059 354.131Z" fill="#1A4583"/>
<path d="M729.607 670.386L725.199 684.386L727.772 682.928L732.01 677.019L729.607 670.386Z" fill="#F2B694"/>
<path d="M706.826 668.082L700.699 680.603L698.355 682.603L701.454 681.651L708.02 672.833L706.826 668.082Z" fill="#E2AA8A"/>
<path d="M693.046 393.162L693.789 450.9L687.492 480.757L698.92 487.674L703.813 443.284L706.454 410.798L703.647 402.02L693.046 393.162Z" fill="#EB0000"/>
<path d="M734.392 517.65L737.099 509.856C739.483 503.002 738.989 495.477 735.732 488.994L729.66 481.228L734.392 517.65Z" fill="#FCEE21"/>
<path d="M700.578 483.224L704.954 678.789L708.401 676.611C708.401 676.611 727.6 611.597 712.492 567.835L716.125 483.991L700.578 483.224Z" fill="#E2AA8A"/>
<path d="M733.549 471.501L733.003 676.959L729.327 676.679C729.327 676.679 718.785 622.11 712.314 584.787L694.598 481.512L733.549 471.501Z" fill="#F2B694"/>
<path d="M694.602 480.836L697.855 561.451L735.814 561.874L734.398 517.65C734.398 517.65 746.538 499.358 732.754 481.259L694.602 480.836Z" fill="#1A4583"/>
<path d="M734.138 666.651L731.604 670.853L726.391 682.611L721.264 684.884C720.193 685.358 719.505 686.493 719.54 687.73L728.45 687.433L732.015 677.018L732.723 685.232L733.019 687.283L734.703 687.228L735.107 676.916L736.099 670.189L734.138 666.651Z" fill="#C9181E"/>
<path d="M711.157 666.212L708.097 670.216L701.461 681.647L695.946 683.342C694.796 683.698 693.966 684.777 693.867 686.054L703.05 686.86L707.848 676.603L707.678 685.133L707.761 687.275L709.497 687.429L711.034 676.884L712.789 670.098L711.157 666.212Z" fill="#ED1C24"/>
<path d="M739.899 493.152L731.693 496.816L725.918 481.184L727.736 474.082L729.756 473.137L739.899 493.152Z" fill="#FF0000"/>
<path d="M733.236 655.6C733.236 655.6 739.469 610.83 733.283 596.846L733.674 561.851L712.562 561.574L733.236 655.6Z" fill="#F2B694"/>
<path d="M709.263 561.535L701.16 500.453L704.872 561.531L709.263 561.535Z" fill="#E9F5ED"/>
<path d="M720.363 372.439L710.303 384.676L710.975 375.637L711.327 374.175L710.094 371.771C710.094 371.771 712.335 371.107 712.813 371.111C713.292 371.115 719.391 370.661 719.391 370.661L720.363 372.439Z" fill="#F2B694"/>
<path d="M710.977 375.641L700.016 394.913L696.969 397.692L702.42 387.4L710.977 375.641Z" fill="#E9F5ED"/>
<path d="M720.367 372.439L722.798 373.676L715.702 385.965L714.766 413.782L711.785 418.063L713.267 384.712L720.367 372.439Z" fill="#FF4949"/>
<path d="M714.497 438.027L711.386 447.608L710.777 437.09C710.781 437.09 712.793 438.094 714.497 438.027Z" fill="#FF4949"/>
<path d="M710.973 375.641L700.466 382.558L693.043 393.162L703.644 402.02L706.427 386.692L710.973 375.641Z" fill="#EB0000"/>
<path d="M702.186 340.456C702.186 340.456 691.723 358.649 706.807 377.815L711.34 386.747L718.297 377.945L717.602 368.151L702.186 340.456Z" fill="#1A4583"/>
<path d="M701.689 346.436C701.689 346.436 699.38 336.061 711.262 333.614C723.14 331.171 732.643 334.073 732.212 349.547C731.781 365.017 736.465 361.076 743.359 366.562C750.257 372.048 753.202 373.499 752.36 379.672C751.518 385.846 753.846 385.099 759.064 390.953C764.281 396.806 764.87 413.194 759.688 415.96C754.506 418.727 751.423 415.213 749.075 425.106C746.723 434.999 724.595 417.363 724.595 417.363L714.717 362.242L708.306 356.637L701.689 346.436Z" fill="#1A4583"/>
<path d="M719.666 371.447L720.429 373.621L710.523 377.858C711.041 375.621 711.199 374.186 711.199 374.186L711.33 374.178C710.622 372.594 709.891 371.317 709.492 370.965C708.523 370.096 705.005 369.293 701.796 370.507C698.602 371.732 699.309 368.305 699.562 367.475C699.831 366.645 699.495 366.36 698.867 366.08C698.242 365.815 697.91 365.428 698.709 365.175C699.507 364.922 699.657 363.795 698.938 363.942C698.234 364.088 697.092 363.444 697.874 363.179C698.428 363.001 698.404 360.183 697.681 360.025C696.957 359.866 694.522 358.475 697.143 357.906C699.768 357.341 701.068 353.673 701.068 353.673C700.381 350.246 700.934 347.914 701.685 346.432C701.685 346.432 709.753 346.42 712.105 349.981L714.761 357.179C714.761 357.179 717.053 349.357 718.761 352.59C720.469 355.811 719.287 360.704 717.073 360.839L716.658 366.305L719.386 370.657L719.666 371.447Z" fill="#F2B694"/>
<path d="M716.977 359.246L720.799 365.194L715.293 368.127L716.977 359.246Z" fill="#ED1C24"/>
<path d="M694.596 480.837L698.829 454.695L695.501 417.225C684.129 403.407 696.96 398.893 700.007 394.913L710.968 375.641L715.581 375.692L720.356 372.443L736.919 380.388L737.33 424.826L732.618 482.797L694.596 480.837Z" fill="#FCF7F3"/>
<path d="M712.944 390.7L710.707 443.418C710.747 446.422 713.209 454.829 714.798 457.378L729.479 497.801L755.943 485.987L738.25 447.177L746.824 408.209C749.52 399.004 751.603 395.486 747.437 387.332L746.954 386.645C746.081 385.4 744.915 384.392 743.555 383.712L728.819 376.321L720.364 372.443L713.933 384.692L712.944 390.7Z" fill="#FF0000"/>
<path d="M715.41 357.519L717.481 353.388C717.481 353.388 719.319 355.851 718.145 357.546L717.588 355.365L715.41 357.519Z" fill="#E9F5ED"/>
<path d="M703.982 337.428C703.982 337.428 698.104 342.697 698.721 349.171L713.528 347.875C713.524 347.875 714.323 336.116 703.982 337.428Z" fill="#105F9A"/>
<path d="M700.379 349.025L701.158 349.42L711.755 349.519L714.546 356.582L713.526 347.875L700.379 349.025Z" fill="#E9F5ED"/>
<path d="M889.597 672.797C888.154 674.734 886.668 676.639 885.146 678.513C876.359 677.916 868.951 677.303 864.046 676.694C860.077 676.2 852.353 672.706 830.822 649.549C828.83 647.402 826.715 645.09 824.478 642.596C808.283 624.549 787.634 599.233 766.34 571.309C755.442 557.025 744.627 542.385 734.749 528.571C734.299 527.938 733.848 527.31 733.401 526.685C726.891 517.551 720.808 508.804 715.4 500.785C714.61 499.615 713.835 498.461 713.076 497.322C709.554 492.05 706.558 487.433 704.004 483.394C703.542 482.663 703.095 481.947 702.66 481.251C702.593 481.141 702.522 481.03 702.455 480.923C702.194 480.504 701.941 480.093 701.688 479.69C701.131 478.785 700.597 477.912 700.091 477.074C698.621 474.655 697.356 472.497 696.265 470.576C694.063 466.706 692.565 463.778 691.545 461.54C689.347 456.73 689.363 455.133 689.375 454.303V454.078C689.363 452.746 689.126 451.655 688.66 450.794C688.359 450.236 687.964 449.77 687.47 449.394C687.351 449.303 687.229 449.22 687.102 449.141C685.944 448.41 684.402 448.058 682.778 447.94C681.339 447.833 679.829 447.908 678.453 448.066C676.619 448.276 675.018 448.628 674.133 448.885L672.457 443.138C673.014 442.976 675.56 442.268 678.774 441.991C682.675 441.659 687.561 441.956 691.079 444.62C691.419 444.877 691.766 445.173 692.11 445.517C692.687 446.086 693.253 446.782 693.747 447.632C694.609 449.106 695.253 451.031 695.344 453.533C695.348 453.56 695.348 453.588 695.348 453.616C695.36 453.861 695.364 454.114 695.36 454.371C695.36 454.438 695.364 454.533 695.383 454.663C695.474 455.351 695.929 457.035 697.834 460.892C698.652 462.544 699.739 464.6 701.182 467.145V467.149C702.858 470.102 705.004 473.714 707.764 478.129C708.341 479.05 708.945 480.006 709.574 481.003C709.708 481.208 709.839 481.418 709.973 481.631C710.416 482.323 710.87 483.03 711.337 483.757C712.716 485.9 714.215 488.196 715.839 490.658C716.555 491.741 717.294 492.852 718.057 493.998C722.674 500.915 727.856 508.453 733.429 516.365C733.753 516.824 734.077 517.282 734.401 517.745C745.588 533.59 758.28 550.875 771.099 567.681C792.302 595.479 812.841 620.664 828.937 638.6C832.921 643.039 836.479 646.869 839.661 650.173C856.634 667.825 862.789 670.505 864.785 670.754C870.283 671.438 879.122 672.129 889.597 672.797Z" fill="#57B33E"/>
<path d="M739.905 449.6L694.906 453.651L697.966 460.086L739.905 449.6Z" fill="#E9F5ED"/>
<path d="M731.144 395.419L730.164 436.762C730.164 436.762 731.018 439.821 736.651 433.296C742.287 426.77 731.144 395.419 731.144 395.419Z" fill="#E9F5ED"/>
<path d="M688.996 447.813L682.055 445.612L678.098 444.355C678.098 444.355 677.481 445.521 683 447.813L675.746 451.77L681.197 453.501L686.565 451.126L690 450.584L688.996 447.813Z" fill="#F2B694"/>
<path d="M730.935 401.597C730.666 396.656 731.057 391.467 734.777 388.115C736.978 386.131 740.362 386.83 742.987 387.214C755.003 388.961 753.987 424.834 752.193 440.406C751.628 445.315 747.548 449.066 742.607 449.24L687.137 454.284L687.078 447.039C695.715 444.173 705.463 442.47 714.467 440.331C718.954 439.268 723.448 438.268 727.958 437.347C731.547 436.616 733.781 435.513 733.429 431.355C732.757 423.355 732.081 415.36 731.409 407.36C731.263 405.573 731.045 403.605 730.935 401.597Z" fill="#FF4949"/>
<path d="M640.719 460.027L662.653 460.272C671.539 460.371 678.82 453.248 678.919 444.367C679.018 435.482 671.895 428.201 663.013 428.102L641.078 427.857L640.719 460.027Z" fill="#FFB30F"/>
<path d="M531.215 495.733L609.816 496.607C639.095 496.931 663.092 473.465 663.417 444.189C663.741 414.913 640.273 390.917 610.994 390.593L532.393 389.72L531.215 495.733Z" fill="#57B33E"/>
<path d="M590.702 506.267C596.153 506.326 600.623 501.959 600.682 496.508L601.864 390.494C601.924 385.044 597.556 380.574 592.105 380.514C586.654 380.455 582.183 384.823 582.124 390.273L580.942 496.287C580.879 501.737 585.251 506.208 590.702 506.267Z" fill="#FFB30F"/>
<path d="M535.862 505.658C541.313 505.717 545.783 501.35 545.843 495.899L547.024 389.886C547.084 384.435 542.716 379.965 537.265 379.906C531.814 379.846 527.343 384.214 527.284 389.664L526.102 495.678C526.039 501.129 530.411 505.595 535.862 505.658Z" fill="#FFB30F"/>
<path d="M198.23 303.107V232.034H66.1562V186.636L178.97 5.04602H264.271V179.757H300.042V232.034H264.271V303.107H198.23ZM198.23 179.757V113.721C198.23 95.8328 199.147 77.4987 200.526 58.2314H198.693C189.062 77.4905 181.266 94.9161 171.173 113.721L131.272 178.832V179.749H198.23V179.757Z" fill="#010F1C"/>
<path d="M549.507 152.702C549.507 244.876 512.357 308.153 436.231 308.153C359.189 308.153 325.252 238.913 324.789 154.535C324.789 68.3234 361.477 0 438.519 0C518.328 0 549.507 71.0735 549.507 152.702ZM394.96 154.535C394.497 222.858 411.008 255.414 438.065 255.414C465.122 255.414 479.799 221.479 479.799 153.618C479.799 87.5825 465.585 52.7312 437.611 52.7312C411.933 52.7312 394.505 85.2949 394.96 154.535Z" fill="#010F1C"/>
<path d="M707.258 303.107V232.034H575.184V186.636L687.997 5.04602H773.299V179.757H809.07V232.034H773.299V303.107H707.258ZM707.258 179.757V113.721C707.258 95.8328 708.174 77.4987 709.554 58.2314H707.72C698.09 77.4905 690.293 94.9161 680.2 113.721L640.3 178.832V179.749H707.258V179.757Z" fill="#010F1C"/>
<path d="M555.006 287.817H539.176V302.5H556.82V306.911H533.918V266.19H555.911V270.601H539.172V283.469H555.001V287.817H555.006Z" fill="#010F1C"/>
<path d="M563.649 266.732C566.307 266.186 570.114 265.884 573.74 265.884C579.358 265.884 582.983 266.909 585.522 269.208C587.576 271.018 588.726 273.8 588.726 276.942C588.726 282.32 585.344 285.883 581.053 287.334V287.516C584.195 288.603 586.067 291.505 587.035 295.733C588.366 301.413 589.329 305.34 590.177 306.911H584.736C584.071 305.762 583.165 302.261 582.016 297.184C580.809 291.567 578.63 289.45 573.86 289.268H568.903V306.911H563.645V266.732H563.649ZM568.907 285.279H574.285C579.904 285.279 583.471 282.2 583.471 277.545C583.471 272.287 579.664 269.993 574.104 269.931C571.565 269.931 569.755 270.171 568.907 270.415V285.279Z" fill="#010F1C"/>
<path d="M596.156 266.732C598.814 266.186 602.622 265.884 606.247 265.884C611.865 265.884 615.491 266.909 618.029 269.208C620.084 271.018 621.233 273.8 621.233 276.942C621.233 282.32 617.852 285.883 613.56 287.334V287.516C616.702 288.603 618.575 291.505 619.542 295.733C620.873 301.413 621.837 305.34 622.684 306.911H617.248C616.582 305.762 615.677 302.261 614.528 297.184C613.321 291.567 611.146 289.45 606.371 289.268H601.415V306.911H596.156V266.732ZM601.415 285.279H606.793C612.411 285.279 615.979 282.2 615.979 277.545C615.979 272.287 612.171 269.993 606.611 269.931C604.073 269.931 602.262 270.171 601.415 270.415V285.279Z" fill="#010F1C"/>
<path d="M663.652 286.123C663.652 300.14 655.132 307.572 644.739 307.572C633.982 307.572 626.43 299.235 626.43 286.908C626.43 273.978 634.466 265.52 645.343 265.52C656.463 265.52 663.652 274.04 663.652 286.123ZM632.052 286.788C632.052 295.49 636.765 303.282 645.041 303.282C653.379 303.282 658.092 295.609 658.092 286.367C658.092 278.269 653.863 269.811 645.099 269.811C636.401 269.811 632.052 277.847 632.052 286.788Z" fill="#010F1C"/>
<path d="M670.48 266.732C673.139 266.186 676.946 265.884 680.572 265.884C686.19 265.884 689.815 266.909 692.354 269.208C694.408 271.018 695.557 273.8 695.557 276.942C695.557 282.32 692.176 285.883 687.885 287.334V287.516C691.027 288.603 692.899 291.505 693.867 295.733C695.198 301.413 696.161 305.34 697.008 306.911H691.572C690.907 305.762 690.001 302.261 688.852 297.184C687.645 291.567 685.47 289.45 680.696 289.268H675.739V306.911H670.48V266.732ZM675.739 285.279H681.117C686.735 285.279 690.303 282.2 690.303 277.545C690.303 272.287 686.496 269.993 680.935 269.931C678.397 269.931 676.586 270.171 675.739 270.415V285.279Z" fill="#010F1C"/>
</svg>
