<svg width="168" height="61" viewBox="0 0 168 61" fill="none" xmlns="http://www.w3.org/2000/svg">
<path fill-rule="evenodd" clip-rule="evenodd" d="M25.0005 27.5193V14.4449V6.12576H28.3341C30.1687 6.12576 31.6677 7.36235 31.6677 8.87574V22.3082V30.0948V34.6741C29.8696 33.0584 27.5846 31.8128 24.9986 31.1042V27.5193H25.0005ZM33.3382 36.4567V31.2035V22.3082V18.2915H36.6718C38.501 18.2915 40 19.5281 40 21.0415C40 28.5302 40 36.0129 40 43.4971V43.5694C39.9544 52.6482 31.0149 60 20 60C8.98331 60 0.0455913 52.6482 0 43.5694V43.4971V27.2124H3.33364C5.16277 27.2124 6.66728 28.449 6.66728 29.9624V31.2035V36.4567C5.08617 38.4906 4.1707 40.9051 4.1707 43.4971C4.1707 50.7121 11.2574 56.5595 20 56.5595C28.7426 56.5595 35.8293 50.7136 35.8293 43.4971C35.8293 40.9051 34.9157 38.4921 33.3382 36.4567ZM8.33409 34.6756V30.0963V21.2266V11.3158H11.6677C13.5023 11.3158 15.0014 12.5524 15.0014 14.0658V14.8375V27.5193V31.1057C12.4173 31.8128 10.1322 33.0584 8.33409 34.6756ZM16.6664 30.7296V27.229V14.836V0H20C21.8346 0 23.3336 1.23659 23.3336 2.74997V14.4434V27.2275V30.7281C22.2577 30.5401 21.1416 30.4378 20 30.4378C18.8584 30.4408 17.7423 30.5431 16.6664 30.7296Z" fill="#57B33E"/>
<path fill-rule="evenodd" clip-rule="evenodd" d="M20.0005 31.8563C27.7966 31.8563 34.1119 37.072 34.1119 43.4986C34.1119 45.5415 33.4755 47.4566 32.3594 49.1234L25.4678 47.5589L25.3584 47.44C25.2143 47.2821 25.218 47.0684 25.3638 46.9105C25.3693 46.906 25.3784 46.8984 25.3839 46.8939C25.528 46.736 25.776 46.6803 25.9985 46.7525L28.6391 47.6175L26.4106 46.1598C26.2246 46.041 26.1571 45.8364 26.2501 45.6528C26.2556 45.6438 26.2611 45.6363 26.2611 45.6273C26.3541 45.4437 26.5766 45.3369 26.8136 45.358L29.6367 45.6303L27.027 44.7006C26.8045 44.6193 26.6805 44.4403 26.7115 44.2402C26.7115 44.2312 26.717 44.2282 26.717 44.2192C26.748 44.0191 26.9285 43.8687 27.1674 43.8401L29.9795 43.4986L27.1674 43.1571C26.9304 43.1315 26.748 42.9781 26.717 42.7825C26.717 42.7735 26.7115 42.766 26.7115 42.7569C26.6805 42.5614 26.8045 42.3778 27.027 42.3011L29.6367 41.3714L26.8136 41.6407C26.5766 41.6663 26.3541 41.5595 26.2611 41.3759C26.2611 41.3669 26.2556 41.3594 26.2501 41.3504C26.1571 41.1668 26.2246 40.9622 26.4106 40.8389L28.6391 39.3842L25.9985 40.2492C25.776 40.3214 25.528 40.2657 25.3839 40.1078C25.3784 40.0987 25.3675 40.0942 25.3638 40.0867C25.2198 39.9287 25.2143 39.7196 25.3584 39.5617L27.0544 37.6767L24.7748 39.0758C24.5833 39.1946 24.3244 39.1946 24.1347 39.0712C24.1292 39.0667 24.1201 39.0622 24.1146 39.0577C23.9232 38.9344 23.8557 38.7343 23.9432 38.5507L24.9882 36.3709L23.2247 38.2047C23.0752 38.3627 22.8271 38.4138 22.6101 38.3371C22.5992 38.3371 22.5901 38.3326 22.5791 38.3281C22.3566 38.2514 22.2272 38.0724 22.2527 37.8768L22.5828 35.548L21.4558 37.6978C21.3573 37.8813 21.1348 37.9836 20.8977 37.958C20.8868 37.958 20.8777 37.958 20.8667 37.958C20.6296 37.9324 20.4473 37.7835 20.4126 37.5864L19.9987 35.2667L19.5847 37.5864C19.5482 37.782 19.3677 37.9324 19.1288 37.958C19.1178 37.958 19.1087 37.958 19.0978 37.958C18.8607 37.9836 18.6382 37.8813 18.5452 37.6978L17.4182 35.548L17.7446 37.8768C17.7702 38.0724 17.6407 38.2559 17.4182 38.3281C17.4073 38.3326 17.4036 38.3371 17.3927 38.3371C17.1702 38.4138 16.9222 38.3627 16.7726 38.2047L15.0091 36.3709L16.0577 38.5507C16.1453 38.7343 16.0778 38.9344 15.8863 39.0577C15.8754 39.0622 15.8717 39.0667 15.8608 39.0712C15.6693 39.1946 15.4158 39.1946 15.2207 39.0758L12.9411 37.6767L14.6371 39.5617C14.7812 39.7196 14.7812 39.9287 14.6317 40.0867C14.6262 40.0957 14.6207 40.0987 14.6152 40.1078C14.4657 40.2657 14.2231 40.3214 13.9952 40.2492L11.3527 39.3842L13.5812 40.8389C13.7727 40.9622 13.8347 41.1668 13.7417 41.3504C13.7362 41.3594 13.7362 41.3669 13.7308 41.3714C13.6378 41.5549 13.4207 41.6663 13.1782 41.6407L10.3607 41.3714L12.9667 42.3011C13.1891 42.3778 13.3132 42.5614 13.2821 42.7615C13.2821 42.766 13.2821 42.7735 13.2767 42.7825C13.2457 42.9781 13.0706 43.1315 12.8317 43.1571L10.0196 43.4986L12.8317 43.8401C13.0688 43.8702 13.2457 44.0191 13.2767 44.2192C13.2821 44.2282 13.2821 44.2327 13.2821 44.2402C13.3132 44.4403 13.1891 44.6193 12.9667 44.7006L12.9411 44.7096L5.89453 43.1059C6.1462 36.8583 12.3649 31.8563 20.0005 31.8563Z" fill="#FFB30F"/>
<path fill-rule="evenodd" clip-rule="evenodd" d="M8.82542 50.6068C7.80235 49.5146 7.00541 48.266 6.50391 46.9136C9.06249 47.3528 11.4296 47.762 13.6581 48.1502C14.5882 49.2589 15.5292 50.3977 16.4902 51.5575C14.125 51.2582 11.5864 50.9438 8.82542 50.6068ZM30.6144 51.1739C30.2843 51.4853 29.9269 51.7877 29.5549 52.069C29.1409 51.6297 28.7324 51.1905 28.3239 50.7602C29.1099 50.9001 29.8758 51.037 30.6144 51.1739ZM29.3069 52.2526C28.9038 52.5429 28.4844 52.8152 28.0449 53.0664C27.0364 52.934 25.9933 52.7941 24.9064 52.6482C23.9964 51.6328 23.1064 50.6399 22.2293 49.6635C24.2243 50.0216 26.0863 50.354 27.8279 50.6655C28.3148 51.1905 28.8108 51.72 29.3069 52.2526ZM21.6001 49.5537C22.4846 50.5391 23.3782 51.541 24.2827 52.564C22.1417 52.2826 19.8056 51.9803 17.2835 51.6598C16.3279 50.512 15.3869 49.3913 14.466 48.2916C17.03 48.7429 19.4117 49.1611 21.6001 49.5537Z" fill="#0063AF"/>
<path fill-rule="evenodd" clip-rule="evenodd" d="M27.6653 53.2754C27.1692 53.5447 26.6477 53.7824 26.1042 54.0005C25.7942 53.6515 25.4842 53.301 25.1796 52.955C26.0331 53.0663 26.8592 53.1731 27.6653 53.2754ZM19.4315 55.1303C15.3428 54.9979 11.6974 53.4289 9.22266 51.0159C11.9417 51.3318 14.4492 51.6251 16.7853 51.911C17.6534 52.961 18.5361 54.0351 19.4315 55.1303ZM25.6921 54.1585C24.0015 54.7723 22.1359 55.1228 20.1755 55.1393C19.291 54.0727 18.423 53.0287 17.575 52.0057C20.088 52.3171 22.4186 52.603 24.5541 52.8753C24.9316 53.301 25.3091 53.7282 25.6921 54.1585Z" fill="#009BD9"/>
<path fill-rule="evenodd" clip-rule="evenodd" d="M32.1783 49.3867C32.0178 49.6079 31.8519 49.826 31.6823 50.0351C31.3668 49.7117 31.0513 49.3912 30.7413 49.0708L32.1783 49.3867ZM6.38275 46.5766C6.06726 45.6213 5.89584 44.6194 5.88672 43.5829L10.7158 44.6495C11.5893 45.6905 12.4738 46.7436 13.3838 47.8222C11.2008 47.4341 8.87933 47.0204 6.38275 46.5766ZM11.5273 44.8285C14.1333 45.4047 16.5569 45.9372 18.7909 46.4321C19.6279 47.3573 20.4705 48.3006 21.3349 49.2588C19.1428 48.8617 16.7539 48.4269 14.1916 47.9666C13.2889 46.9 12.4008 45.856 11.5273 44.8285ZM19.4365 46.5766C21.4735 47.0249 23.381 47.4416 25.17 47.8387C25.9615 48.6827 26.7675 49.5356 27.5791 50.4022C25.832 50.0817 23.9664 49.7417 21.9695 49.3747C21.1106 48.4269 20.268 47.4927 19.4365 46.5766ZM31.5273 50.2186C31.2938 50.4879 31.0513 50.7482 30.7942 50.9994C29.9206 50.8369 29.0161 50.6714 28.0751 50.4969C27.269 49.6349 26.4666 48.791 25.677 47.9516C27.3256 48.3186 28.8666 48.6556 30.3237 48.979C30.7212 49.3867 31.1242 49.8049 31.5273 50.2186Z" fill="#00368E"/>
<path d="M56.26 41.54C55.0733 41.54 53.96 41.46 52.92 41.3C51.8933 41.1533 50.9533 40.96 50.1 40.72C49.26 40.4667 48.52 40.2067 47.88 39.94L47.34 34.18C48.3933 34.6733 49.64 35.1333 51.08 35.56C52.52 35.9733 54.0467 36.18 55.66 36.18C57.22 36.18 58.3267 35.9867 58.98 35.6C59.6467 35.2 59.98 34.58 59.98 33.74V33.6C59.98 33.04 59.8267 32.5867 59.52 32.24C59.2267 31.88 58.7267 31.5533 58.02 31.26C57.3267 30.9533 56.3867 30.6267 55.2 30.28C53.4133 29.7467 51.92 29.1533 50.72 28.5C49.5333 27.8467 48.6467 27.0333 48.06 26.06C47.4733 25.0733 47.18 23.8267 47.18 22.32V22.06C47.18 19.74 47.9667 17.9667 49.54 16.74C51.1267 15.5133 53.4533 14.9 56.52 14.9C58.36 14.9 59.9467 15.06 61.28 15.38C62.6267 15.7 63.7667 16.08 64.7 16.52L65.24 21.88C64.2133 21.3867 63.0467 20.9733 61.74 20.64C60.4467 20.2933 59.06 20.12 57.58 20.12C56.54 20.12 55.72 20.2067 55.12 20.38C54.5333 20.5533 54.12 20.8067 53.88 21.14C53.64 21.46 53.52 21.8533 53.52 22.32V22.4C53.52 22.88 53.6533 23.3 53.92 23.66C54.2 24.02 54.6933 24.3667 55.4 24.7C56.12 25.0333 57.14 25.3933 58.46 25.78C60.2333 26.3 61.7 26.86 62.86 27.46C64.0333 28.0467 64.9067 28.8133 65.48 29.76C66.0667 30.6933 66.36 31.94 66.36 33.5V33.82C66.36 36.3933 65.5267 38.3267 63.86 39.62C62.1933 40.9 59.66 41.54 56.26 41.54ZM81.3844 41.62C77.6644 41.62 74.871 40.6867 73.0044 38.82C71.151 36.9533 70.2244 34.2667 70.2244 30.76V25.9C70.2244 22.38 71.1577 19.6667 73.0244 17.76C74.9044 15.84 77.691 14.88 81.3844 14.88C85.0777 14.88 87.8577 15.84 89.7244 17.76C91.6044 19.6667 92.5444 22.38 92.5444 25.9V30.76C92.5444 34.2667 91.611 36.9533 89.7444 38.82C87.8777 40.6867 85.091 41.62 81.3844 41.62ZM81.3844 36.46C82.9977 36.46 84.1977 35.9867 84.9844 35.04C85.771 34.0933 86.1644 32.7667 86.1644 31.06V25.58C86.1644 23.7933 85.771 22.42 84.9844 21.46C84.1977 20.5 82.9977 20.02 81.3844 20.02C79.771 20.02 78.571 20.5 77.7844 21.46C76.9977 22.42 76.6044 23.7933 76.6044 25.58V31.06C76.6044 32.7667 76.9977 34.0933 77.7844 35.04C78.571 35.9867 79.771 36.46 81.3844 36.46ZM103.855 41H97.595V15.44H103.855V41ZM101.155 35.74H114.515V41H101.155V35.74ZM117.365 41L124.685 15.44H134.085L141.365 41H135.045L129.625 19.56H129.165L123.685 41H117.365ZM123.585 34.98V30.12H135.105V34.98H123.585ZM159.827 41L152.487 29.8H150.927V26.04H152.487L159.727 15.44H166.807L157.747 28.28V26.88L167.087 41H159.827ZM145.347 41V15.44H151.547V41H145.347Z" fill="white"/>
<path d="M46.994 58V49.054H48.38V58H46.994ZM47.407 58V56.824H52.734V58H47.407ZM47.792 54.024V52.862H52.58V54.024H47.792ZM47.4 50.223V49.054H52.685V50.223H47.4ZM56.2331 58.161C55.2158 58.161 54.4598 57.8927 53.9651 57.356C53.4751 56.8147 53.2301 56.0517 53.2301 55.067V54.08C53.2301 53.0907 53.4775 52.3277 53.9721 51.791C54.4668 51.2543 55.2205 50.986 56.2331 50.986C56.5131 50.986 56.7698 51.0117 57.0031 51.063C57.2411 51.1143 57.4558 51.182 57.6471 51.266C57.8385 51.3453 58.0018 51.4293 58.1371 51.518L58.2561 52.694C58.0321 52.5353 57.7731 52.4023 57.4791 52.295C57.1851 52.183 56.8421 52.127 56.4501 52.127C55.8248 52.127 55.3605 52.2973 55.0571 52.638C54.7585 52.974 54.6091 53.464 54.6091 54.108V55.032C54.6091 55.662 54.7585 56.1473 55.0571 56.488C55.3605 56.8287 55.8248 56.999 56.4501 56.999C56.8468 56.999 57.1968 56.9453 57.5001 56.838C57.8035 56.726 58.0765 56.5907 58.3191 56.432L58.2001 57.622C57.9855 57.7573 57.7101 57.881 57.3741 57.993C57.0428 58.105 56.6625 58.161 56.2331 58.161ZM61.5984 58.175C60.5904 58.175 59.8251 57.9067 59.3024 57.37C58.7797 56.8333 58.5184 56.061 58.5184 55.053V54.08C58.5184 53.0767 58.7797 52.309 59.3024 51.777C59.8251 51.2403 60.5904 50.972 61.5984 50.972C62.6064 50.972 63.3694 51.2403 63.8874 51.777C64.4101 52.309 64.6714 53.0767 64.6714 54.08V55.053C64.6714 56.061 64.4101 56.8333 63.8874 57.37C63.3694 57.9067 62.6064 58.175 61.5984 58.175ZM61.5984 57.062C62.1537 57.062 62.5761 56.8963 62.8654 56.565C63.1547 56.2337 63.2994 55.7577 63.2994 55.137V53.996C63.2994 53.38 63.1547 52.9087 62.8654 52.582C62.5761 52.2507 62.1537 52.085 61.5984 52.085C61.0431 52.085 60.6207 52.2507 60.3314 52.582C60.0421 52.9087 59.8974 53.38 59.8974 53.996V55.137C59.8974 55.7577 60.0421 56.2337 60.3314 56.565C60.6207 56.8963 61.0431 57.062 61.5984 57.062ZM65.4679 58V48.732H66.8399V58H65.4679ZM70.7121 58.175C69.7041 58.175 68.9387 57.9067 68.4161 57.37C67.8934 56.8333 67.6321 56.061 67.6321 55.053V54.08C67.6321 53.0767 67.8934 52.309 68.4161 51.777C68.9387 51.2403 69.7041 50.972 70.7121 50.972C71.7201 50.972 72.4831 51.2403 73.0011 51.777C73.5237 52.309 73.7851 53.0767 73.7851 54.08V55.053C73.7851 56.061 73.5237 56.8333 73.0011 57.37C72.4831 57.9067 71.7201 58.175 70.7121 58.175ZM70.7121 57.062C71.2674 57.062 71.6897 56.8963 71.9791 56.565C72.2684 56.2337 72.4131 55.7577 72.4131 55.137V53.996C72.4131 53.38 72.2684 52.9087 71.9791 52.582C71.6897 52.2507 71.2674 52.085 70.7121 52.085C70.1567 52.085 69.7344 52.2507 69.4451 52.582C69.1557 52.9087 69.0111 53.38 69.0111 53.996V55.137C69.0111 55.7577 69.1557 56.2337 69.4451 56.565C69.7344 56.8963 70.1567 57.062 70.7121 57.062ZM77.3045 55.928C76.3432 55.928 75.6059 55.7227 75.0925 55.312C74.5792 54.9013 74.3225 54.3157 74.3225 53.555V53.443C74.3225 52.9623 74.4229 52.547 74.6235 52.197C74.8242 51.8423 75.1439 51.567 75.5825 51.371C76.0259 51.1703 76.6045 51.0583 77.3185 51.035L80.8745 50.916V51.987L78.9705 51.903V51.98C79.2412 52.05 79.4652 52.1597 79.6425 52.309C79.8245 52.4537 79.9622 52.6357 80.0555 52.855C80.1489 53.0743 80.1955 53.3333 80.1955 53.632V53.709C80.1955 54.4277 79.9505 54.9783 79.4605 55.361C78.9752 55.739 78.2565 55.928 77.3045 55.928ZM77.2485 59.547H77.4235C77.8202 59.547 78.1562 59.519 78.4315 59.463C78.7069 59.407 78.9169 59.3183 79.0615 59.197C79.2109 59.0757 79.2855 58.9147 79.2855 58.714V58.693C79.2855 58.455 79.2015 58.2753 79.0335 58.154C78.8655 58.0373 78.5739 57.9603 78.1585 57.923L76.1845 57.734L76.5275 57.72C76.3035 57.7573 76.1052 57.8157 75.9325 57.895C75.7645 57.9697 75.6315 58.0677 75.5335 58.189C75.4402 58.315 75.3935 58.469 75.3935 58.651V58.665C75.3935 58.8797 75.4659 59.0523 75.6105 59.183C75.7599 59.3137 75.9722 59.407 76.2475 59.463C76.5275 59.519 76.8612 59.547 77.2485 59.547ZM77.1645 60.639C76.5345 60.639 75.9909 60.583 75.5335 60.471C75.0809 60.3637 74.7309 60.1887 74.4835 59.946C74.2409 59.708 74.1195 59.3907 74.1195 58.994V58.966C74.1195 58.7 74.1779 58.476 74.2945 58.294C74.4159 58.112 74.5792 57.9673 74.7845 57.86C74.9945 57.748 75.2279 57.6733 75.4845 57.636V57.566C75.1439 57.496 74.8895 57.3817 74.7215 57.223C74.5582 57.0597 74.4765 56.8497 74.4765 56.593V56.586C74.4765 56.4087 74.5162 56.257 74.5955 56.131C74.6749 56.0003 74.7939 55.8977 74.9525 55.823C75.1159 55.7437 75.3189 55.6923 75.5615 55.669V55.515L77.0035 55.865L76.4785 55.844C76.2032 55.8487 76.0119 55.8837 75.9045 55.949C75.8019 56.0143 75.7505 56.1077 75.7505 56.229V56.236C75.7505 56.376 75.8275 56.481 75.9815 56.551C76.1402 56.6163 76.4062 56.67 76.7795 56.712L78.4455 56.894C79.1829 56.9733 79.7219 57.153 80.0625 57.433C80.4032 57.713 80.5735 58.1377 80.5735 58.707V58.742C80.5735 59.1807 80.4452 59.54 80.1885 59.82C79.9365 60.1 79.5725 60.3053 79.0965 60.436C78.6252 60.5713 78.0582 60.639 77.3955 60.639H77.1645ZM77.2835 54.92C77.6429 54.92 77.9415 54.8687 78.1795 54.766C78.4222 54.6587 78.6042 54.5 78.7255 54.29C78.8469 54.08 78.9075 53.8233 78.9075 53.52V53.415C78.9075 53.1163 78.8469 52.8643 78.7255 52.659C78.6089 52.4537 78.4315 52.2973 78.1935 52.19C77.9602 52.0827 77.6639 52.029 77.3045 52.029H77.2695C76.8822 52.029 76.5672 52.0873 76.3245 52.204C76.0819 52.316 75.9045 52.477 75.7925 52.687C75.6852 52.8923 75.6315 53.1373 75.6315 53.422V53.52C75.6315 53.8233 75.6922 54.08 75.8135 54.29C75.9349 54.5 76.1169 54.6587 76.3595 54.766C76.6069 54.8687 76.9149 54.92 77.2835 54.92ZM84.451 56.789L83.723 57.104L85.648 51.154H87.055L83.94 60.408H82.554L83.639 57.195L84.255 57.713H82.708L80.559 51.154H81.98L83.688 56.789H84.451ZM96.2948 58C96.2201 57.9253 96.1104 57.818 95.9658 57.678C95.8211 57.538 95.6671 57.3887 95.5038 57.23C95.3404 57.0667 95.1864 56.9173 95.0418 56.782C94.9018 56.6467 94.7991 56.5463 94.7338 56.481L94.5588 56.292L91.2898 53.233L91.0868 52.988C90.7788 52.6707 90.5524 52.372 90.4078 52.092C90.2631 51.812 90.1908 51.4807 90.1908 51.098V51.049C90.1908 50.3723 90.4031 49.8427 90.8278 49.46C91.2571 49.0773 91.9081 48.886 92.7808 48.886C93.3361 48.886 93.8098 48.9397 94.2018 49.047C94.5938 49.1497 94.9204 49.2687 95.1818 49.404L95.3148 50.657C95.0114 50.5077 94.6661 50.3793 94.2788 50.272C93.8961 50.16 93.4831 50.104 93.0398 50.104C92.5358 50.104 92.1741 50.1927 91.9548 50.37C91.7401 50.5427 91.6328 50.783 91.6328 51.091V51.126C91.6328 51.3687 91.6981 51.5973 91.8288 51.812C91.9641 52.022 92.1671 52.2577 92.4378 52.519L95.4198 55.361L95.7558 55.725C95.8958 55.8603 96.0358 55.998 96.1758 56.138C96.3205 56.278 96.4651 56.4203 96.6098 56.565C96.7544 56.705 96.8991 56.8497 97.0438 56.999C97.1884 57.1437 97.3331 57.2907 97.4778 57.44C97.6224 57.5893 97.7671 57.7387 97.9118 57.888V58H96.2948ZM92.4658 58.168C91.4484 58.168 90.6878 57.9347 90.1838 57.468C89.6798 57.0013 89.4278 56.3387 89.4278 55.48V55.256C89.4278 54.6027 89.5538 54.0683 89.8058 53.653C90.0624 53.233 90.4941 52.862 91.1008 52.54L91.8288 53.506C91.4881 53.6693 91.2408 53.8793 91.0868 54.136C90.9374 54.3927 90.8628 54.7287 90.8628 55.144V55.354C90.8628 55.8953 91.0074 56.306 91.2968 56.586C91.5908 56.8613 92.0224 56.999 92.5918 56.999C93.0724 56.999 93.4808 56.9033 93.8168 56.712C94.1574 56.516 94.4468 56.236 94.6848 55.872L95.0488 55.417C95.2821 55.0063 95.4618 54.5513 95.5878 54.052C95.7184 53.548 95.8094 53.0067 95.8608 52.428H97.2048C97.1208 53.2027 96.9808 53.9167 96.7848 54.57C96.5934 55.2233 96.3251 55.7997 95.9798 56.299L95.6018 56.691C95.3591 57.0037 95.0884 57.2697 94.7898 57.489C94.4958 57.7083 94.1574 57.8763 93.7748 57.993C93.3968 58.1097 92.9604 58.168 92.4658 58.168ZM102.842 58.168C102.417 58.168 102.025 58.1353 101.666 58.07C101.307 58.0047 100.985 57.923 100.7 57.825C100.42 57.727 100.182 57.629 99.986 57.531L99.853 56.152C100.212 56.3573 100.637 56.5393 101.127 56.698C101.622 56.8567 102.156 56.936 102.73 56.936C103.383 56.936 103.864 56.8287 104.172 56.614C104.48 56.3947 104.634 56.0657 104.634 55.627V55.522C104.634 55.2373 104.571 55.004 104.445 54.822C104.324 54.6353 104.116 54.4767 103.822 54.346C103.528 54.2107 103.129 54.0823 102.625 53.961C101.962 53.7977 101.426 53.6063 101.015 53.387C100.609 53.163 100.313 52.8853 100.126 52.554C99.9393 52.218 99.846 51.8003 99.846 51.301V51.231C99.846 50.4797 100.096 49.901 100.595 49.495C101.094 49.089 101.843 48.886 102.842 48.886C103.481 48.886 104.027 48.949 104.48 49.075C104.937 49.1963 105.313 49.334 105.607 49.488L105.733 50.769C105.392 50.573 105 50.4097 104.557 50.279C104.114 50.1437 103.614 50.076 103.059 50.076C102.625 50.076 102.277 50.125 102.016 50.223C101.755 50.3163 101.566 50.454 101.449 50.636C101.332 50.8133 101.274 51.028 101.274 51.28V51.308C101.274 51.5693 101.332 51.7933 101.449 51.98C101.566 52.1667 101.771 52.3323 102.065 52.477C102.364 52.617 102.786 52.757 103.332 52.897C103.981 53.0603 104.503 53.2447 104.9 53.45C105.301 53.6507 105.595 53.9143 105.782 54.241C105.969 54.563 106.062 54.9877 106.062 55.515V55.655C106.062 56.481 105.794 57.1063 105.257 57.531C104.72 57.9557 103.915 58.168 102.842 58.168ZM109.63 58.175C108.622 58.175 107.857 57.9067 107.334 57.37C106.812 56.8333 106.55 56.061 106.55 55.053V54.08C106.55 53.0767 106.812 52.309 107.334 51.777C107.857 51.2403 108.622 50.972 109.63 50.972C110.638 50.972 111.401 51.2403 111.919 51.777C112.442 52.309 112.703 53.0767 112.703 54.08V55.053C112.703 56.061 112.442 56.8333 111.919 57.37C111.401 57.9067 110.638 58.175 109.63 58.175ZM109.63 57.062C110.186 57.062 110.608 56.8963 110.897 56.565C111.187 56.2337 111.331 55.7577 111.331 55.137V53.996C111.331 53.38 111.187 52.9087 110.897 52.582C110.608 52.2507 110.186 52.085 109.63 52.085C109.075 52.085 108.653 52.2507 108.363 52.582C108.074 52.9087 107.929 53.38 107.929 53.996V55.137C107.929 55.7577 108.074 56.2337 108.363 56.565C108.653 56.8963 109.075 57.062 109.63 57.062ZM113.5 58V48.732H114.872V58H113.5ZM119.955 58L120.011 56.376L119.962 56.166V54.01L119.969 53.667C119.969 53.1397 119.834 52.7523 119.563 52.505C119.297 52.2577 118.868 52.134 118.275 52.134C117.794 52.134 117.349 52.2017 116.938 52.337C116.527 52.4723 116.156 52.6287 115.825 52.806L115.951 51.658C116.138 51.5507 116.357 51.4457 116.609 51.343C116.861 51.2403 117.146 51.1563 117.463 51.091C117.78 51.0257 118.128 50.993 118.506 50.993C119.024 50.993 119.463 51.056 119.822 51.182C120.181 51.3033 120.471 51.4807 120.69 51.714C120.909 51.9473 121.068 52.2273 121.166 52.554C121.269 52.8807 121.32 53.2447 121.32 53.646V58H119.955ZM117.638 58.154C116.961 58.154 116.443 57.9883 116.084 57.657C115.725 57.321 115.545 56.845 115.545 56.229V56.019C115.545 55.3657 115.746 54.8827 116.147 54.57C116.553 54.2527 117.19 54.0333 118.058 53.912L120.116 53.618L120.193 54.612L118.219 54.892C117.748 54.9573 117.412 55.0717 117.211 55.235C117.01 55.3937 116.91 55.6293 116.91 55.942V56.04C116.91 56.3527 117.006 56.593 117.197 56.761C117.393 56.929 117.689 57.013 118.086 57.013C118.45 57.013 118.763 56.9523 119.024 56.831C119.285 56.7097 119.498 56.5487 119.661 56.348C119.824 56.1427 119.936 55.9163 119.997 55.669L120.186 56.586H119.934C119.859 56.866 119.736 57.125 119.563 57.363C119.39 57.601 119.148 57.7923 118.835 57.937C118.527 58.0817 118.128 58.154 117.638 58.154ZM123.56 53.863L123.266 52.792H123.602C123.746 52.2507 123.989 51.826 124.33 51.518C124.67 51.2053 125.135 51.049 125.723 51.049C125.863 51.049 125.986 51.0607 126.094 51.084C126.206 51.1027 126.306 51.126 126.395 51.154L126.479 52.491C126.367 52.4537 126.241 52.4257 126.101 52.407C125.961 52.3837 125.809 52.372 125.646 52.372C125.146 52.372 124.715 52.5003 124.351 52.757C123.987 53.0137 123.723 53.3823 123.56 53.863ZM122.244 58V51.154H123.581L123.518 53.149L123.616 53.247V58H122.244ZM129.159 58V49.054H130.545V58H129.159ZM129.572 58V56.824H134.899V58H129.572ZM129.957 54.024V52.862H134.745V54.024H129.957ZM129.565 50.223V49.054H134.85V50.223H129.565ZM140.252 58V53.772C140.252 53.4407 140.205 53.1537 140.112 52.911C140.023 52.6683 139.874 52.4793 139.664 52.344C139.459 52.2087 139.176 52.141 138.817 52.141C138.486 52.141 138.199 52.2017 137.956 52.323C137.713 52.4443 137.515 52.6077 137.361 52.813C137.212 53.0183 137.104 53.2517 137.039 53.513L136.815 52.561H137.109C137.188 52.2717 137.319 52.0103 137.501 51.777C137.683 51.539 137.926 51.35 138.229 51.21C138.532 51.07 138.908 51 139.356 51C139.893 51 140.327 51.1027 140.658 51.308C140.989 51.5087 141.232 51.8027 141.386 52.19C141.545 52.5773 141.624 53.0533 141.624 53.618V58H140.252ZM135.716 58V51.154H137.088L137.032 52.757L137.088 52.841V58H135.716ZM145.58 58.161C144.488 58.161 143.669 57.902 143.123 57.384C142.581 56.8613 142.311 56.11 142.311 55.13V54.01C142.311 53.044 142.563 52.2973 143.067 51.77C143.575 51.238 144.315 50.972 145.286 50.972C145.944 50.972 146.492 51.0933 146.931 51.336C147.369 51.574 147.698 51.9123 147.918 52.351C148.137 52.7897 148.247 53.31 148.247 53.912V54.171C148.247 54.3297 148.24 54.4907 148.226 54.654C148.212 54.8173 148.193 54.9737 148.17 55.123H146.91C146.919 54.8803 146.924 54.6517 146.924 54.437C146.928 54.2223 146.931 54.0263 146.931 53.849C146.931 53.471 146.87 53.1513 146.749 52.89C146.627 52.6287 146.445 52.4303 146.203 52.295C145.96 52.155 145.654 52.085 145.286 52.085C144.74 52.085 144.334 52.2413 144.068 52.554C143.802 52.862 143.669 53.303 143.669 53.877V54.521L143.676 54.682V55.291C143.676 55.5477 143.713 55.781 143.788 55.991C143.867 56.201 143.991 56.383 144.159 56.537C144.331 56.6863 144.553 56.803 144.824 56.887C145.094 56.9663 145.423 57.006 145.811 57.006C146.249 57.006 146.66 56.95 147.043 56.838C147.43 56.726 147.794 56.5767 148.135 56.39L148.009 57.559C147.701 57.741 147.341 57.888 146.931 58C146.525 58.1073 146.074 58.161 145.58 58.161ZM143.039 55.123V54.094H147.89V55.123H143.039ZM150.275 53.863L149.981 52.792H150.317C150.461 52.2507 150.704 51.826 151.045 51.518C151.385 51.2053 151.85 51.049 152.438 51.049C152.578 51.049 152.701 51.0607 152.809 51.084C152.921 51.1027 153.021 51.126 153.11 51.154L153.194 52.491C153.082 52.4537 152.956 52.4257 152.816 52.407C152.676 52.3837 152.524 52.372 152.361 52.372C151.861 52.372 151.43 52.5003 151.066 52.757C150.702 53.0137 150.438 53.3823 150.275 53.863ZM148.959 58V51.154H150.296L150.233 53.149L150.331 53.247V58H148.959ZM156.164 55.928C155.203 55.928 154.465 55.7227 153.952 55.312C153.439 54.9013 153.182 54.3157 153.182 53.555V53.443C153.182 52.9623 153.282 52.547 153.483 52.197C153.684 51.8423 154.003 51.567 154.442 51.371C154.885 51.1703 155.464 51.0583 156.178 51.035L159.734 50.916V51.987L157.83 51.903V51.98C158.101 52.05 158.325 52.1597 158.502 52.309C158.684 52.4537 158.822 52.6357 158.915 52.855C159.008 53.0743 159.055 53.3333 159.055 53.632V53.709C159.055 54.4277 158.81 54.9783 158.32 55.361C157.835 55.739 157.116 55.928 156.164 55.928ZM156.108 59.547H156.283C156.68 59.547 157.016 59.519 157.291 59.463C157.566 59.407 157.776 59.3183 157.921 59.197C158.07 59.0757 158.145 58.9147 158.145 58.714V58.693C158.145 58.455 158.061 58.2753 157.893 58.154C157.725 58.0373 157.433 57.9603 157.018 57.923L155.044 57.734L155.387 57.72C155.163 57.7573 154.965 57.8157 154.792 57.895C154.624 57.9697 154.491 58.0677 154.393 58.189C154.3 58.315 154.253 58.469 154.253 58.651V58.665C154.253 58.8797 154.325 59.0523 154.47 59.183C154.619 59.3137 154.832 59.407 155.107 59.463C155.387 59.519 155.721 59.547 156.108 59.547ZM156.024 60.639C155.394 60.639 154.85 60.583 154.393 60.471C153.94 60.3637 153.59 60.1887 153.343 59.946C153.1 59.708 152.979 59.3907 152.979 58.994V58.966C152.979 58.7 153.037 58.476 153.154 58.294C153.275 58.112 153.439 57.9673 153.644 57.86C153.854 57.748 154.087 57.6733 154.344 57.636V57.566C154.003 57.496 153.749 57.3817 153.581 57.223C153.418 57.0597 153.336 56.8497 153.336 56.593V56.586C153.336 56.4087 153.376 56.257 153.455 56.131C153.534 56.0003 153.653 55.8977 153.812 55.823C153.975 55.7437 154.178 55.6923 154.421 55.669V55.515L155.863 55.865L155.338 55.844C155.063 55.8487 154.871 55.8837 154.764 55.949C154.661 56.0143 154.61 56.1077 154.61 56.229V56.236C154.61 56.376 154.687 56.481 154.841 56.551C155 56.6163 155.266 56.67 155.639 56.712L157.305 56.894C158.042 56.9733 158.581 57.153 158.922 57.433C159.263 57.713 159.433 58.1377 159.433 58.707V58.742C159.433 59.1807 159.305 59.54 159.048 59.82C158.796 60.1 158.432 60.3053 157.956 60.436C157.485 60.5713 156.918 60.639 156.255 60.639H156.024ZM156.143 54.92C156.502 54.92 156.801 54.8687 157.039 54.766C157.282 54.6587 157.464 54.5 157.585 54.29C157.706 54.08 157.767 53.8233 157.767 53.52V53.415C157.767 53.1163 157.706 52.8643 157.585 52.659C157.468 52.4537 157.291 52.2973 157.053 52.19C156.82 52.0827 156.523 52.029 156.164 52.029H156.129C155.742 52.029 155.427 52.0873 155.184 52.204C154.941 52.316 154.764 52.477 154.652 52.687C154.545 52.8923 154.491 53.1373 154.491 53.422V53.52C154.491 53.8233 154.552 54.08 154.673 54.29C154.794 54.5 154.976 54.6587 155.219 54.766C155.466 54.8687 155.774 54.92 156.143 54.92ZM163.31 56.789L162.582 57.104L164.507 51.154H165.914L162.799 60.408H161.413L162.498 57.195L163.114 57.713H161.567L159.418 51.154H160.839L162.547 56.789H163.31Z" fill="#FFB30F"/>
</svg>
